<svg id="Layer_1" data-name="Layer 1" xmlns="http://www.w3.org/2000/svg" xmlns:xlink="http://www.w3.org/1999/xlink" viewBox="0 0 114.19 113.25">
  <defs>
    <style>
      .cls-1{fill:#737373;}
      .cls-2{fill:#ababab;}
      .cls-3{fill:url(#New_Gradient_Swatch_1);}
      .cls-4{fill:#f79520;}
    </style>
    <linearGradient id="New_Gradient_Swatch_1" x1="-988.5" y1="272.28" x2="-1090.15" y2="230.17" gradientTransform="translate(1098.09 -193.58)" gradientUnits="userSpaceOnUse">
      <stop offset="0" stop-color="#f7941d"/>
      <stop offset="1" stop-color="#ed1c24"/>
    </linearGradient>
  </defs>
  <title>NSSalumni-logo-compact</title>
  <g id="compact">
    <path class="cls-1" d="M54.94,53.85H52.56v7.38a.25.25,0,0,1-.25.25H50.16a.25.25,0,0,1-.25-.25V53.85H47.77a.25.25,0,0,1-.25-.25V51.94a.25.25,0,0,1,.25-.25h6.93a.25.25,0,0,1,.25.25Z" transform="translate(-1.67 -1)"/>
    <path class="cls-1" d="M27.87,58.51a2.89,2.89,0,0,1-.46,1.62,3,3,0,0,1-1.33,1.1,4.94,4.94,0,0,1-2,.39,8.29,8.29,0,0,1-1.64-.14A6.11,6.11,0,0,1,21,61V58.9a.15.15,0,0,1,.23-.15,11.52,11.52,0,0,0,1.35.5,5.87,5.87,0,0,0,1.5.22,1.46,1.46,0,0,0,.86-.2.63.63,0,0,0,.27-.53.58.58,0,0,0-.11-.35,1.29,1.29,0,0,0-.36-.3q-.24-.15-1.3-.63A6.25,6.25,0,0,1,22,56.61a2.59,2.59,0,0,1-.71-.94,3.12,3.12,0,0,1-.23-1.25,2.51,2.51,0,0,1,1-2.11,4.34,4.34,0,0,1,2.71-.76,7.6,7.6,0,0,1,3.1.7l-.72,1.81a.26.26,0,0,1-.33.15,9.45,9.45,0,0,0-2.14-.54,1.24,1.24,0,0,0-.75.18.55.55,0,0,0-.23.45.65.65,0,0,0,.3.52,11.34,11.34,0,0,0,1.62.83,4.48,4.48,0,0,1,1.76,1.22A2.66,2.66,0,0,1,27.87,58.51Z" transform="translate(-1.67 -1)"/>
    <path class="cls-1" d="M38.6,56.58a5.28,5.28,0,0,1-1.21,3.76,4.65,4.65,0,0,1-3.55,1.29,4.65,4.65,0,0,1-3.53-1.29,5.26,5.26,0,0,1-1.23-3.77,5.23,5.23,0,0,1,1.22-3.74,4.67,4.67,0,0,1,3.56-1.29,4.64,4.64,0,0,1,3.55,1.28A5.29,5.29,0,0,1,38.6,56.58Zm-6.74,0q0,2.84,2,2.84a1.7,1.7,0,0,0,1.49-.69,5,5,0,0,0,0-4.32,1.68,1.68,0,0,0-1.47-.7Q31.85,53.71,31.86,56.58Z" transform="translate(-1.67 -1)"/>
    <path class="cls-1" d="M89,61.28l-2.72-4.06A2.89,2.89,0,0,0,88,54.59q0-2.89-4-2.9H81a.25.25,0,0,0-.25.25v9.3a.25.25,0,0,0,.25.25h2.15a.25.25,0,0,0,.25-.25V57.92h.67l2.08,3.56h2.75C89.06,61.49,89.11,61.39,89,61.28Zm-5.12-5.35h-.5v-2a.25.25,0,0,1,.25-.25h.27q1.36,0,1.36,1Q85.31,55.93,83.92,55.93Z" transform="translate(-1.67 -1)"/>
    <path class="cls-1" d="M67.63,51.69a.33.33,0,0,0-.3.24l-1,4.68q-.39,1.84-.48,2.58-.07-.58-.29-1.74c-.15-.78-.38-1.81-.38-1.81L65,55.15l-.73-3.22a.33.33,0,0,0-.3-.24h-2a.33.33,0,0,0-.31.24l-.81,3.46q-.19.77-.42,1.94t-.31,1.86c-.09-.64-.44-2.35-.44-2.35l-.1-.49-1-4.42a.32.32,0,0,0-.3-.24H56.34a.19.19,0,0,0-.19.24l2.31,9.31a.34.34,0,0,0,.31.24H61.4a.33.33,0,0,0,.3-.24h0q.81-3.63.92-4.15t.24-1.19q.12-.65.17-1.08.07.54.21,1.33c.1.53.16.82.16.82l.94,4.27a.33.33,0,0,0,.3.24h2.63a.34.34,0,0,0,.31-.24l2.35-9.56Z" transform="translate(-1.67 -1)"/>
    <path class="cls-2" d="M45.53,55.68H42.84v2.12h2.94V55.93A.25.25,0,0,0,45.53,55.68Z" transform="translate(-1.67 -1)"/>
    <path class="cls-1" d="M45.77,51.69H40.48a.25.25,0,0,0-.25.25v9.3a.25.25,0,0,0,.25.25h2.11a.25.25,0,0,0,.25-.25V54.06a.25.25,0,0,1,.25-.25H46V51.94A.25.25,0,0,0,45.77,51.69Z" transform="translate(-1.67 -1)"/>
    <path class="cls-2" d="M93,57.48h2.94V55.61a.25.25,0,0,0-.25-.25H93Z" transform="translate(-1.67 -1)"/>
    <path class="cls-1" d="M96.14,53.57V51.94a.25.25,0,0,0-.25-.25H90.57a.25.25,0,0,0-.25.25v9.3a.25.25,0,0,0,.25.25h5.57V59.58a.25.25,0,0,0-.25-.25H93.22a.25.25,0,0,1-.25-.25V55.36h0V54.06a.25.25,0,0,1,.25-.25h2.67A.25.25,0,0,0,96.14,53.57Z" transform="translate(-1.67 -1)"/>
    <path class="cls-2" d="M79.4,61.25l-.63-1.93H76l.56,2.16h2.64A.17.17,0,0,0,79.4,61.25Z" transform="translate(-1.67 -1)"/>
    <path class="cls-1" d="M76.32,51.89a.37.37,0,0,0-.33-.24H73a.37.37,0,0,0-.33.24l-3.13,9.6h2.67a.34.34,0,0,0,.31-.24l.5-1.92h5.78Zm-2.77,5.27c.35-1.34.66-2.55.71-2.76q.18-.78.24-1.13.07.37.28,1.22c.14.57.69,2.67.69,2.67Z" transform="translate(-1.67 -1)"/>
    <path class="cls-1" d="M58.89,46.09V39H56.48a.25.25,0,0,0-.25.25v4.7H53.16v-4.7a.25.25,0,0,0-.25-.25H50.74a.25.25,0,0,0-.25.25v9.3a.25.25,0,0,0,.25.25h2.41V46.09Z" transform="translate(-1.67 -1)"/>
    <path class="cls-2" d="M56.23,46.09v2.42a.25.25,0,0,0,.25.25h2.16a.25.25,0,0,0,.25-.25V46.09Z" transform="translate(-1.67 -1)"/>
    <path class="cls-1" d="M49.06,45.79a2.89,2.89,0,0,1-.46,1.62,3,3,0,0,1-1.33,1.1,5,5,0,0,1-2,.39,8.25,8.25,0,0,1-1.64-.14,6.08,6.08,0,0,1-1.38-.48V46.17a.15.15,0,0,1,.23-.15,11.41,11.41,0,0,0,1.35.5,5.86,5.86,0,0,0,1.5.22,1.46,1.46,0,0,0,.86-.2.63.63,0,0,0,.27-.53.58.58,0,0,0-.11-.35,1.28,1.28,0,0,0-.36-.31q-.24-.15-1.3-.63a6.23,6.23,0,0,1-1.44-.84,2.6,2.6,0,0,1-.71-.94,3.12,3.12,0,0,1-.23-1.25,2.51,2.51,0,0,1,1-2.11A4.34,4.34,0,0,1,46,38.82a7.6,7.6,0,0,1,3.1.7l-.72,1.81a.26.26,0,0,1-.33.15,9.45,9.45,0,0,0-2.14-.54,1.23,1.23,0,0,0-.75.18.55.55,0,0,0-.23.45.65.65,0,0,0,.3.52,11.35,11.35,0,0,0,1.62.83,4.47,4.47,0,0,1,1.76,1.22A2.66,2.66,0,0,1,49.06,45.79Z" transform="translate(-1.67 -1)"/>
    <path class="cls-1" d="M66.39,39.2A.35.35,0,0,1,66.7,39h2.71l-3.13,9.56a.37.37,0,0,1-.33.24H63.34a.37.37,0,0,1-.33-.24L60,39.2a.17.17,0,0,1,.17-.24h2.48a.34.34,0,0,1,.31.24l1.2,4.48.12.48s.37,1.63.4,2.06q0-.47.19-1.17T65.09,44Z" transform="translate(-1.67 -1)"/>
    <path class="cls-1" d="M72.88,39a.25.25,0,0,1,.25.25v9.3a.25.25,0,0,1-.25.25H70.47V39.21a.25.25,0,0,1,.25-.25Z" transform="translate(-1.67 -1)"/>
    <path class="cls-1" d="M28.29,39a.25.25,0,0,0-.25.25v4.18c0,.6.08,2.13.08,2.13a.79.79,0,0,1,0,.25,1,1,0,0,1-.14-.22L24.54,39H21.32a.25.25,0,0,0-.25.25v9.3a.25.25,0,0,0,.25.25h2.1V44.35c0-.57-.11-2.24-.11-2.24a.53.53,0,0,1,0-.25.74.74,0,0,1,.15.22l3.35,6.46a.45.45,0,0,0,.36.22h3a.25.25,0,0,0,.25-.25V39Z" transform="translate(-1.67 -1)"/>
    <path class="cls-1" d="M82.87,48.76a.25.25,0,0,1-.25-.25v-9.3a.25.25,0,0,1,.25-.25H85a.25.25,0,0,1,.25.25v7.16a.25.25,0,0,0,.25.25h3.27a.25.25,0,0,1,.25.25v1.89Z" transform="translate(-1.67 -1)"/>
    <path class="cls-1" d="M75.17,48.76a.25.25,0,0,1-.25-.25v-9.3a.25.25,0,0,1,.25-.25h2.15a.25.25,0,0,1,.25.25v7.16a.25.25,0,0,0,.25.25h3.27a.25.25,0,0,1,.25.25v1.89Z" transform="translate(-1.67 -1)"/>
    <path class="cls-2" d="M93,44.75h2.94V42.88a.25.25,0,0,0-.25-.25H93Z" transform="translate(-1.67 -1)"/>
    <path class="cls-1" d="M96.14,40.84V39.21a.25.25,0,0,0-.25-.25H90.57a.25.25,0,0,0-.25.25v9.3a.25.25,0,0,0,.25.25h5.57V46.85a.25.25,0,0,0-.25-.25H93.22a.25.25,0,0,1-.25-.25V42.63h0V41.34a.25.25,0,0,1,.25-.25h2.67A.25.25,0,0,0,96.14,40.84Z" transform="translate(-1.67 -1)"/>
    <path class="cls-2" d="M41.35,48.52l-.63-1.93H38l.56,2.16h2.64A.17.17,0,0,0,41.35,48.52Z" transform="translate(-1.67 -1)"/>
    <path class="cls-1" d="M38.27,39.16a.37.37,0,0,0-.33-.24h-3a.37.37,0,0,0-.33.24l-3.13,9.6h2.67a.34.34,0,0,0,.31-.24l.5-1.92h5.78ZM35.5,44.43c.35-1.34.66-2.55.71-2.76q.18-.78.24-1.13.07.37.28,1.22c.14.57.69,2.67.69,2.67Z" transform="translate(-1.67 -1)"/>
    <path class="cls-1" d="M46.41,71.54V64.42H44a.25.25,0,0,0-.25.25v4.7H40.67v-4.7a.25.25,0,0,0-.25-.25H38.26a.25.25,0,0,0-.25.25V74a.25.25,0,0,0,.25.25h2.41V71.54Z" transform="translate(-1.67 -1)"/>
    <path class="cls-2" d="M43.75,71.54V74a.25.25,0,0,0,.25.25h2.16a.25.25,0,0,0,.25-.25V71.54Z" transform="translate(-1.67 -1)"/>
    <path class="cls-1" d="M27.87,71.24a2.89,2.89,0,0,1-.46,1.62A3,3,0,0,1,26.07,74a4.94,4.94,0,0,1-2,.39,8.29,8.29,0,0,1-1.64-.14A6.08,6.08,0,0,1,21,73.73V71.62a.15.15,0,0,1,.23-.15,11.43,11.43,0,0,0,1.35.5,5.87,5.87,0,0,0,1.5.22,1.46,1.46,0,0,0,.86-.2.63.63,0,0,0,.27-.53.58.58,0,0,0-.11-.35,1.3,1.3,0,0,0-.36-.3q-.24-.15-1.3-.63A6.25,6.25,0,0,1,22,69.34a2.59,2.59,0,0,1-.71-.94,3.11,3.11,0,0,1-.23-1.25,2.51,2.51,0,0,1,1-2.11,4.34,4.34,0,0,1,2.71-.76,7.6,7.6,0,0,1,3.1.7l-.72,1.81a.26.26,0,0,1-.33.15,9.46,9.46,0,0,0-2.14-.54,1.24,1.24,0,0,0-.75.18.55.55,0,0,0-.23.45.65.65,0,0,0,.3.52,11.34,11.34,0,0,0,1.62.83,4.48,4.48,0,0,1,1.76,1.22A2.65,2.65,0,0,1,27.87,71.24Z" transform="translate(-1.67 -1)"/>
    <path class="cls-1" d="M33.61,66.45a1.69,1.69,0,0,0-1.47.77,3.74,3.74,0,0,0-.53,2.13q0,2.83,2.15,2.83A4.41,4.41,0,0,0,35,72a12.79,12.79,0,0,0,1.23-.44v2a.36.36,0,0,1-.24.32,10.84,10.84,0,0,1-2.54.47,4.39,4.39,0,0,1-3.4-1.29,5.31,5.31,0,0,1-1.18-3.72,5.94,5.94,0,0,1,.57-2.67A4.1,4.1,0,0,1,31.1,64.9a5,5,0,0,1,2.53-.62,7,7,0,0,1,3,.69L36,66.82a.24.24,0,0,1-.32.13s-.49-.21-.86-.33A3.79,3.79,0,0,0,33.61,66.45Z" transform="translate(-1.67 -1)"/>
    <path class="cls-1" d="M57.29,69.3a5.28,5.28,0,0,1-1.21,3.76,4.65,4.65,0,0,1-3.55,1.29A4.65,4.65,0,0,1,49,73.05a5.26,5.26,0,0,1-1.23-3.77A5.23,5.23,0,0,1,49,65.55a4.67,4.67,0,0,1,3.56-1.29,4.64,4.64,0,0,1,3.54,1.28A5.29,5.29,0,0,1,57.29,69.3Zm-6.74,0q0,2.84,2,2.84A1.7,1.7,0,0,0,54,71.45a5,5,0,0,0,0-4.32,1.68,1.68,0,0,0-1.47-.7Q50.55,66.43,50.55,69.3Z" transform="translate(-1.67 -1)"/>
    <path class="cls-1" d="M68,69.3a5.28,5.28,0,0,1-1.21,3.76,4.65,4.65,0,0,1-3.55,1.29,4.65,4.65,0,0,1-3.53-1.29,5.26,5.26,0,0,1-1.23-3.77,5.23,5.23,0,0,1,1.22-3.74,4.67,4.67,0,0,1,3.56-1.29,4.64,4.64,0,0,1,3.54,1.28A5.29,5.29,0,0,1,68,69.3Zm-6.74,0q0,2.84,2,2.84a1.7,1.7,0,0,0,1.49-.69,5,5,0,0,0,0-4.32,1.68,1.68,0,0,0-1.47-.7Q61.21,66.43,61.21,69.3Z" transform="translate(-1.67 -1)"/>
    <path class="cls-1" d="M69.56,74.21a.25.25,0,0,1-.25-.25v-9.3a.25.25,0,0,1,.25-.25h2.15a.25.25,0,0,1,.25.25v7.16a.25.25,0,0,0,.25.25h3.27a.25.25,0,0,1,.25.25v1.89Z" transform="translate(-1.67 -1)"/>
    <path class="cls-3" d="M83,9.25Q33.79-15.29,9.63,33.14t25,73q49.18,24.3,73.25-23.95Q132.06,33.76,83,9.25Zm21.61,51.4c-9.75,13.46-21.3,25.69-36,35.77-4.6,3.15-11.3,6.9-18.38,8.09a24.21,24.21,0,0,1-17.07-3.09C24.4,95.89,17.9,84.75,13.44,69.71c-3-10.2-4.06-21.73-2.42-30,1.59-8,6.64-16.07,16.44-19.52,9.39-3.31,17.35-2.24,24.39-1.67,7.3.59,13.49,2.26,20.33,4.09C78.47,24.31,85.3,26.5,91.8,29s13.85,5.6,17.45,10.09C115.37,46.65,108.71,54.93,104.57,60.64Z" transform="translate(-1.67 -1)"/>
  </g>
  <path class="cls-4" d="M42.91,84.57q0-.24-.08-.43t0-.38a2.58,2.58,0,0,1-.77.66,2.21,2.21,0,0,1-2.38-.18A1.64,1.64,0,0,1,39.17,83a1.46,1.46,0,0,1,.67-1.29,3.28,3.28,0,0,1,1.85-.45h1.1v-.68a1.05,1.05,0,0,0-.32-.81,1.28,1.28,0,0,0-.9-.3,2.22,2.22,0,0,0-.71.1,1.32,1.32,0,0,0-.5.28l-.11.62h-.82V79.31a3.18,3.18,0,0,1,1-.51,3.83,3.83,0,0,1,1.23-.19,2.45,2.45,0,0,1,1.61.51,1.78,1.78,0,0,1,.62,1.46v2.82c0,.08,0,.15,0,.22s0,.14,0,.22l.43.06v.68Zm-1.72-.78a1.9,1.9,0,0,0,1-.25,1.58,1.58,0,0,0,.63-.61V82H41.65a1.62,1.62,0,0,0-1,.3.91.91,0,0,0-.38.74.73.73,0,0,0,.24.59A1.09,1.09,0,0,0,41.19,83.79Z" transform="translate(-1.67 -1)"/>
  <path class="cls-4" d="M45,76.81v-.69H47v7.61l.88.15v.68H45v-.68l.88-.15V77Z" transform="translate(-1.67 -1)"/>
  <path class="cls-4" d="M52.87,83.7a2,2,0,0,1-.71.72,2,2,0,0,1-1,.25,1.87,1.87,0,0,1-1.49-.61,2.84,2.84,0,0,1-.54-1.9V79.55l-.67-.15v-.69H50.2v3.46a2.18,2.18,0,0,0,.28,1.29,1,1,0,0,0,.86.35,1.75,1.75,0,0,0,.94-.23,1.44,1.44,0,0,0,.56-.65V79.55L52,79.4v-.69H53.9v5l.67.15v.68H52.94Z" transform="translate(-1.67 -1)"/>
  <path class="cls-4" d="M55.2,83.88l.88-.15V79.55l-.88-.15v-.69H57l.07.76a1.92,1.92,0,0,1,.73-.64,2.23,2.23,0,0,1,1-.23,1.81,1.81,0,0,1,1,.27,1.64,1.64,0,0,1,.63.81,2.17,2.17,0,0,1,.73-.79,1.92,1.92,0,0,1,1.06-.29,1.76,1.76,0,0,1,1.42.61,2.81,2.81,0,0,1,.52,1.85v2.67l.88.15v.68H62.28v-.68l.88-.15V81.05a2,2,0,0,0-.3-1.23,1.08,1.08,0,0,0-.88-.36,1.12,1.12,0,0,0-.9.39,1.71,1.71,0,0,0-.39,1v2.88l.88.15v.68H58.74v-.68l.88-.15V81.05a1.92,1.92,0,0,0-.31-1.2,1.07,1.07,0,0,0-.88-.38,1.47,1.47,0,0,0-.8.2,1.29,1.29,0,0,0-.48.56v3.5l.88.15v.68H55.2Z" transform="translate(-1.67 -1)"/>
  <path class="cls-4" d="M65.73,83.88l.88-.15V79.55l-.88-.15v-.69h1.83l.08.87a2.13,2.13,0,0,1,.73-.72,2,2,0,0,1,1-.26,1.91,1.91,0,0,1,1.47.55,2.44,2.44,0,0,1,.52,1.71v2.86l.88.15v.68H69.41v-.68l.88-.15V80.89a1.58,1.58,0,0,0-.31-1.1,1.22,1.22,0,0,0-.93-.32,1.5,1.5,0,0,0-.81.22,1.62,1.62,0,0,0-.57.61v3.44l.88.15v.68H65.73Z" transform="translate(-1.67 -1)"/>
  <path class="cls-4" d="M73,83.88l.88-.15V79.55L73,79.4v-.69H75v5l.88.15v.68H73ZM75,77.21H73.9V76.12H75Z" transform="translate(-1.67 -1)"/>
</svg>
